# Blender v2.83.18 OBJ File: 'AGG.blend'
# www.blender.org
o Icosphere
v -0.122376 -1.629751 0.061756
v 1.060534 -0.726099 0.921180
v -0.375385 -1.010716 1.333548
v -0.859664 -1.109597 -0.031715
v -0.375385 -1.010716 -1.447633
v 1.060534 -0.726099 -0.797668
v 0.528261 0.451461 1.333548
v -1.106472 0.451460 0.802382
v -0.580419 0.352572 -0.891139
v 0.528261 0.451461 -1.447633
v 1.538593 0.451454 -0.057043
v 0.076438 1.355113 -0.057043
v -0.189135 -1.670227 0.760320
v 0.572916 -1.385609 0.566909
v 0.506160 -1.139072 1.265481
v 1.268213 -0.854452 0.061756
v 0.572916 -1.385609 -0.443397
v -0.782994 -1.670222 -0.057043
v -1.048573 -1.139070 0.760323
v -0.189135 -1.670227 -0.874405
v -1.048573 -1.139070 -0.874408
v 0.506160 -1.139072 -1.379567
v 1.631171 -0.279627 0.448113
v 1.631171 -0.279627 -0.562198
v 0.076438 -0.279627 1.577698
v 1.037315 -0.279627 1.265490
v -1.166830 -0.409187 0.408708
v -0.572974 -0.409187 1.226085
v -0.358386 -0.378516 -1.354247
v -1.478295 -0.279627 -0.562198
v 1.037315 -0.279627 -1.379575
v 0.549391 -0.298202 -1.673352
v 1.201449 0.579815 0.760323
v -0.041819 0.450258 1.226077
v -0.788097 0.480926 -0.031715
v 0.172769 0.480929 -1.354239
v 1.201449 0.579815 -0.874408
v 0.019099 1.405304 0.730762
v 0.677185 0.871437 0.128435
v -0.618854 1.110971 0.448111
v -0.618854 1.110971 -0.562196
v 0.342011 1.110972 -0.874405
vt 0.315844 0.227518
vt 0.265562 0.100950
vt 0.374350 0.140882
vt 0.193094 0.000000
vt 0.122574 0.101393
vt 0.374350 0.295031
vt 0.259731 0.357982
vt 0.194725 0.235124
vt 0.070839 0.007867
vt 0.199883 0.457661
vt 0.282160 0.554002
vt 0.140691 0.575407
vt 0.880524 0.618578
vt 0.777710 0.626399
vt 0.803568 0.511100
vt 0.487599 0.346456
vt 0.376108 0.288490
vt 0.530335 0.259267
vt 0.072578 0.228272
vt 0.116743 0.358425
vt 0.000000 0.296192
vt 0.296800 0.668458
vt 0.315983 0.791169
vt 0.228123 0.699387
vt 0.126099 0.493055
vt 0.937695 0.449269
vt 0.653694 0.319997
vt 0.000001 0.142041
vt 0.107950 0.705005
vt 0.174515 0.812574
vt 0.000000 0.747900
vt 0.000000 0.975189
vt 0.001501 0.812574
vt 0.070701 0.887806
vt 0.895555 0.000000
vt 0.895555 0.129024
vt 0.813803 0.085889
vt 0.694508 0.206847
vt 0.651953 0.177207
vt 0.694508 0.073657
vt 0.887987 0.898939
vt 0.820090 1.000000
vt 0.814231 0.824153
vt 0.473240 0.506873
vt 0.396780 0.649297
vt 0.374350 0.539306
vt 0.510181 0.630812
vt 0.475202 0.751659
vt 0.813803 0.257939
vt 0.694508 0.185199
vt 0.805940 0.122265
vt 0.571133 0.000000
vt 0.536302 0.121950
vt 0.710538 0.031475
vt 0.848435 0.233585
vt 0.126229 0.975189
vt 0.813803 0.000000
vt 0.359417 0.431951
vt 0.359417 0.614107
vt 0.315983 0.481404
vt 0.072063 0.638441
vt 0.386946 0.432241
vt 0.555948 0.407671
vt 0.887987 0.761000
vt 0.651868 0.609630
vt 0.567278 0.507858
vt 0.597748 0.752934
vt 0.814231 0.932900
vt 0.698929 0.817544
vt 0.814231 0.761000
vt 0.680154 0.933100
vt 0.219943 0.812574
vt 0.219943 0.957515
vt 0.126229 0.926447
vt 0.694508 0.386900
vt 0.776099 0.257939
vt 0.806551 0.386900
vt 0.293875 0.901661
vt 0.219943 0.899233
vt 0.293875 0.812574
vt 0.680154 0.471722
vt 0.566243 0.820066
vt 0.680154 0.825711
vt 0.575734 0.407671
vt 0.374350 0.132773
vt 1.000000 0.590072
vt 0.680154 0.572557
vt 0.720021 0.407671
vt 0.681566 0.670828
vt 0.187263 0.431951
vt 0.436115 0.405187
vt 1.000000 0.724674
vt 0.901123 0.699543
vt 0.777711 0.761000
vt 0.315983 0.431951
vt 0.302200 0.007149
vn 0.3450 -0.9383 -0.0214
vn 0.7002 -0.6617 0.2680
vn 0.0702 -0.9962 -0.0510
vn 0.0541 -0.9978 0.0393
vn 0.3418 -0.9396 0.0163
vn 0.7220 -0.6371 0.2696
vn 0.0247 -0.3304 0.9435
vn -0.9360 -0.2639 -0.2331
vn -0.6570 0.1274 -0.7430
vn 0.7794 -0.4817 -0.4007
vn 0.7482 -0.3803 0.5436
vn -0.4762 0.0007 0.8793
vn -0.8429 -0.4979 0.2040
vn -0.3396 0.1464 -0.9291
vn 0.6553 -0.5864 -0.4761
vn 0.4272 0.6349 0.6438
vn -0.2921 0.6111 0.7357
vn -0.9686 0.0561 -0.2424
vn -0.1497 0.6242 -0.7668
vn 0.4316 0.9013 -0.0365
vn 0.6318 0.7747 -0.0261
vn 0.5255 0.8503 0.0275
vn 0.4089 0.6617 -0.6284
vn -0.1024 0.9435 -0.3151
vn -0.2404 0.6282 -0.7400
vn -0.5356 0.3130 -0.7843
vn -0.3313 0.9435 0.0000
vn -0.9658 0.2594 0.0000
vn -0.8368 0.4558 -0.3033
vn -0.3855 0.9186 -0.0866
vn -0.5223 0.4186 0.7429
vn -0.1652 0.4624 0.8712
vn 0.6278 0.7783 -0.0039
vn 0.5713 0.8148 -0.0980
vn 0.4453 0.8943 0.0432
vn 0.8897 0.3304 -0.3151
vn 0.7947 0.1876 -0.5773
vn 0.5746 0.3304 -0.7488
vn -0.2229 0.2753 -0.9352
vn -0.3407 0.2106 -0.9163
vn -0.5346 0.3304 -0.7779
vn -0.6178 0.7421 -0.2601
vn -0.8020 0.5017 0.3242
vn -0.9139 0.2201 -0.3411
vn -0.3603 0.2227 0.9059
vn -0.4998 0.3089 0.8092
vn -0.1702 0.4052 0.8983
vn 0.5746 0.3304 0.7488
vn 0.7947 0.1876 0.5773
vn 0.8897 0.3304 0.3151
vn 0.4901 0.2639 -0.8307
vn 0.4992 -0.3085 -0.8097
vn 0.0247 -0.3309 -0.9434
vn -0.5237 0.3366 -0.7825
vn -0.5769 0.0082 -0.8168
vn -0.8431 -0.4965 0.2064
vn -0.7914 -0.2075 0.5750
vn -0.7998 0.1504 0.5811
vn -0.6385 -0.0729 0.7662
vn 0.3066 0.1256 0.9435
vn 0.3035 -0.1876 0.9342
vn 0.6841 -0.4228 0.5944
vn 0.9921 0.1256 0.0000
vn 0.8455 -0.5339 0.0000
vn 0.6596 -0.7036 -0.2645
vn 0.7223 -0.6543 -0.2238
vn 0.4621 -0.8489 -0.2565
vn -0.0385 -0.6617 -0.7488
vn -0.4089 -0.6617 -0.6284
vn -0.4911 -0.7947 -0.3568
vn -0.9648 -0.1419 0.2213
vn -0.9645 -0.1213 -0.2346
vn -0.4911 -0.7947 0.3568
vn -0.4089 -0.6617 0.6284
vn 0.7002 -0.6617 -0.2680
vn 0.6071 -0.7947 0.0000
vn 0.3313 -0.9435 0.0000
vn -0.0385 -0.6617 0.7488
vn 0.4034 -0.8501 0.3386
vn 0.6827 -0.6661 0.3003
s off
f 1/1/1 14/2/1 13/3/1
f 2/4/2 14/2/2 16/5/2
f 1/1/3 13/3/3 18/6/3
f 1/1/4 18/6/4 20/7/4
f 1/1/5 20/7/5 17/8/5
f 2/4/6 16/5/6 23/9/6
f 3/10/7 15/11/7 25/12/7
f 4/13/8 19/14/8 27/15/8
f 5/16/9 21/17/9 29/18/9
f 6/19/10 22/20/10 31/21/10
f 2/22/11 23/23/11 26/24/11
f 3/10/12 25/12/12 28/25/12
f 4/13/13 27/15/13 30/26/13
f 5/16/14 29/18/14 32/27/14
f 6/19/15 31/21/15 24/28/15
f 7/29/16 33/30/16 38/31/16
f 8/32/17 34/33/17 40/34/17
f 9/35/18 35/36/18 41/37/18
f 10/38/19 36/39/19 42/40/19
f 11/41/20 37/42/20 39/43/20
f 39/44/21 42/45/21 12/46/21
f 39/44/22 37/47/22 42/45/22
f 37/47/23 10/48/23 42/45/23
f 42/49/24 41/50/24 12/51/24
f 42/40/25 36/39/25 41/52/25
f 36/39/26 9/53/26 41/52/26
f 41/50/27 40/54/27 12/51/27
f 41/37/28 35/36/28 40/55/28
f 35/56/29 8/32/29 40/34/29
f 40/54/30 38/57/30 12/51/30
f 40/58/31 34/59/31 38/60/31
f 34/61/32 7/29/32 38/31/32
f 38/62/33 39/44/33 12/46/33
f 38/62/34 33/63/34 39/44/34
f 33/64/35 11/41/35 39/43/35
f 24/65/36 37/47/36 11/66/36
f 24/65/37 31/67/37 37/47/37
f 31/67/38 10/48/38 37/47/38
f 32/27/39 36/39/39 10/38/39
f 32/27/40 29/18/40 36/39/40
f 29/18/41 9/53/41 36/39/41
f 30/68/42 35/69/42 9/70/42
f 30/68/43 27/71/43 35/69/43
f 27/72/44 8/73/44 35/74/44
f 28/75/45 34/76/45 8/77/45
f 28/78/46 25/79/46 34/80/46
f 25/12/47 7/29/47 34/61/47
f 26/24/48 33/30/48 7/29/48
f 26/24/49 23/23/49 33/30/49
f 23/81/50 11/66/50 33/63/50
f 31/67/51 32/82/51 10/48/51
f 31/67/52 22/83/52 32/82/52
f 22/84/53 5/16/53 32/27/53
f 29/18/54 30/85/54 9/53/54
f 29/18/55 21/17/55 30/85/55
f 21/86/56 4/13/56 30/26/56
f 27/15/57 28/87/57 8/88/57
f 27/15/58 19/14/58 28/87/58
f 19/14/59 3/89/59 28/87/59
f 25/12/60 26/24/60 7/29/60
f 25/12/61 15/11/61 26/24/61
f 15/11/62 2/22/62 26/24/62
f 23/81/63 24/65/63 11/66/63
f 23/9/64 16/5/64 24/28/64
f 16/5/65 6/19/65 24/28/65
f 17/8/66 22/20/66 6/19/66
f 17/8/67 20/7/67 22/20/67
f 20/7/68 5/90/68 22/20/68
f 20/91/69 21/17/69 5/16/69
f 20/92/70 18/93/70 21/86/70
f 18/93/71 4/13/71 21/86/71
f 18/93/72 19/14/72 4/13/72
f 18/93/73 13/94/73 19/14/73
f 13/94/74 3/89/74 19/14/74
f 16/5/75 17/8/75 6/19/75
f 16/5/76 14/2/76 17/8/76
f 14/2/77 1/1/77 17/8/77
f 13/95/78 15/11/78 3/10/78
f 13/3/79 14/2/79 15/96/79
f 14/2/80 2/4/80 15/96/80
